HIERARCHY
ROOT Hips
{
	OFFSET 0.000000 0.000000 0.000000
	CHANNELS 6 Xposition Yposition Zposition Zrotation Yrotation Xrotation 
	JOINT LHipJoint
	{
		OFFSET 0.000000 0.000000 0.000000
		CHANNELS 3 Zrotation Yrotation Xrotation
		JOINT LeftUpLeg
		{
			OFFSET 1.363060 -1.794630 0.839290
			CHANNELS 3 Zrotation Yrotation Xrotation
			JOINT LeftLeg
			{
				OFFSET 2.448110 -6.726130 0.000000
				CHANNELS 3 Zrotation Yrotation Xrotation
				JOINT LeftFoot
				{
					OFFSET 2.562200 -7.039590 0.000000
					CHANNELS 3 Zrotation Yrotation Xrotation
					JOINT LeftToeBase
					{
						OFFSET 0.157640 -0.433110 2.322550
						CHANNELS 3 Zrotation Yrotation Xrotation
						End Site
						{
							OFFSET 0.000000 0.000000 0.000000
						}
					}
				}
			}
		}
	}
	JOINT RHipJoint
	{
		OFFSET 0.000000 0.000000 0.000000
		CHANNELS 3 Zrotation Yrotation Xrotation
		JOINT RightUpLeg
		{
			OFFSET -1.305520 -1.794630 0.839290
			CHANNELS 3 Zrotation Yrotation Xrotation
			JOINT RightLeg
			{
				OFFSET -2.542530 -6.985550 0.000000
				CHANNELS 3 Zrotation Yrotation Xrotation
				JOINT RightFoot
				{
					OFFSET -2.568260 -7.056230 0.000000
					CHANNELS 3 Zrotation Yrotation Xrotation
					JOINT RightToeBase
					{
						OFFSET -0.164730 -0.452590 2.363150
						CHANNELS 3 Zrotation Yrotation Xrotation
						End Site
						{
							OFFSET 0.000000 0.000000 0.000000
						}
					}
				}
			}
		}
	}
	JOINT LowerBack
	{
		OFFSET 0.000000 0.000000 0.000000
		CHANNELS 3 Zrotation Yrotation Xrotation
		JOINT Spine
		{
			OFFSET 0.028270 2.035590 -0.193380
			CHANNELS 3 Zrotation Yrotation Xrotation
			JOINT Spine1
			{
				OFFSET 0.056720 2.048850 -0.042750
				CHANNELS 3 Zrotation Yrotation Xrotation
				JOINT Neck
				{
					OFFSET 0.000000 0.000000 0.000000
					CHANNELS 3 Zrotation Yrotation Xrotation
					JOINT Neck1
					{
						OFFSET -0.054170 1.746240 0.172020
						CHANNELS 3 Zrotation Yrotation Xrotation
						JOINT Head
						{
							OFFSET 0.104070 1.761360 -0.123970
							CHANNELS 3 Zrotation Yrotation Xrotation
							End Site
							{
								OFFSET 0.000000 0.000000 0.000000
							}
						}
					}
				}
				JOINT LeftShoulder
				{
					OFFSET 0.000000 0.000000 0.000000
					CHANNELS 3 Zrotation Yrotation Xrotation
					JOINT LeftArm
					{
						OFFSET 3.362410 1.200890 -0.311210
						CHANNELS 3 Zrotation Yrotation Xrotation
						JOINT LeftForeArm
						{
							OFFSET 4.983000 -0.000000 -0.000000
							CHANNELS 3 Zrotation Yrotation Xrotation
							JOINT LeftHand
							{
								OFFSET 3.483560 -0.000000 -0.000000
								CHANNELS 3 Zrotation Yrotation Xrotation
								JOINT LeftFingerBase
								{
									OFFSET 0.000000 0.000000 0.000000
									CHANNELS 3 Zrotation Yrotation Xrotation
									JOINT LeftHandIndex1
									{
										OFFSET 0.715260 -0.000000 -0.000000
										CHANNELS 3 Zrotation Yrotation Xrotation
										End Site
										{
											OFFSET 0.000000 0.000000 0.000000
										}
									}
								}
								JOINT LThumb
								{
									OFFSET 0.000000 0.000000 0.000000
									CHANNELS 3 Zrotation Yrotation Xrotation
									End Site
									{
										OFFSET 0.000000 0.000000 0.000000
									}
								}
							}
						}
					}
				}
				JOINT RightShoulder
				{
					OFFSET 0.000000 0.000000 0.000000
					CHANNELS 3 Zrotation Yrotation Xrotation
					JOINT RightArm
					{
						OFFSET -3.136600 1.374050 -0.404650
						CHANNELS 3 Zrotation Yrotation Xrotation
						JOINT RightForeArm
						{
							OFFSET -5.241900 -0.000000 -0.000000
							CHANNELS 3 Zrotation Yrotation Xrotation
							JOINT RightHand
							{
								OFFSET -3.444170 -0.000000 -0.000000
								CHANNELS 3 Zrotation Yrotation Xrotation
								JOINT RightFingerBase
								{
									OFFSET 0.000000 0.000000 0.000000
									CHANNELS 3 Zrotation Yrotation Xrotation
									JOINT RightHandIndex1
									{
										OFFSET -0.622530 -0.000000 -0.000000
										CHANNELS 3 Zrotation Yrotation Xrotation
										End Site
										{
											OFFSET 0.000000 0.000000 0.000000
										}
									}
								}
								JOINT RThumb
								{
									OFFSET 0.000000 0.000000 0.000000
									CHANNELS 3 Zrotation Yrotation Xrotation
									End Site
									{
										OFFSET 0.000000 0.000000 0.000000
									}
								}
							}
						}
					}
				}
			}
		}
	}
}
MOTION
Frames: 8
Frame Time: 0.008333
-19.075738 16.259708 -2.411194 -58.195866 86.525194 -36.610638 -12.587659 4.044457 -0.022858 -0.027038 7.432962 3.876453 -0.073089 0.813974 16.951700 1.080917 6.964240 13.109271 2.128201 0.000000 -86.585300 6.801995 -1.455993 6.405773 7.765053 13.055935 -55.850716 2.369243 -1.232849 22.364971 -0.950373 -4.918846 4.553807 -2.215400 0.000000 -37.192800 10.833699 -4.963531 -5.389742 1.870531 -6.084638 -3.952499 -6.751191 -6.217385 0.925434 9.093979 -10.838500 -8.441102 -3.516312 -0.258891 -0.217928 0.000000 0.000000 0.000000 -6.042109 -0.742495 2.498216 -56.363394 -23.361610 13.197487 -2.756312 -46.162214 -0.021810 6.138550 -1.392870 -0.089619 -0.149246 0.269272 -0.000000 0.000000 0.000000 0.000000 0.000000 0.000000 0.000000 14.911615 -11.397685 2.276156 55.196221 -9.435812 -26.465616 4.129375 7.353356 0.007171 -1.515625 3.650928 -0.053721 0.140105 -0.072304 -0.000000 0.000000 0.000000 0.000000 0.000000 0.000000 0.000000 
-18.867475 16.292432 -2.373721 -60.570482 86.418150 -38.971857 -12.763168 4.009362 0.042676 0.398562 7.451756 2.807710 0.158373 0.925162 19.282957 1.229334 7.331793 15.416067 2.414800 0.000000 -84.556900 6.688440 -1.579433 6.359852 8.288526 13.198980 -55.456460 2.343119 -1.331867 23.354404 -1.006876 -5.069525 4.053360 -2.195500 -0.000001 -35.901600 11.106557 -4.934478 -5.460615 1.925166 -6.086225 -3.982077 -6.734537 -6.221154 0.893311 9.046408 -10.590687 -8.412631 -3.537588 -0.260974 -0.210222 0.000000 0.000000 0.000000 -6.147645 -0.713587 2.494152 -57.043747 -22.588291 13.091721 -2.782147 -45.044749 -0.022441 6.452479 -1.417483 -0.095184 -0.148104 0.260970 0.000000 0.000000 0.000000 0.000000 0.000000 0.000000 0.000000 14.894033 -11.169260 2.260703 55.306832 -8.829479 -26.226476 4.121687 7.296574 0.006975 -1.681906 3.670303 -0.059419 0.139720 -0.072743 -0.000000 0.000000 0.000000 0.000000 0.000000 0.000000 0.000000 
-18.661756 16.326707 -2.334241 -62.499404 86.310976 -40.903879 -12.916177 3.950271 0.094801 0.776194 7.551647 1.618759 0.363461 1.012350 21.765203 1.394139 7.745616 17.516211 2.712700 0.000000 -81.477200 6.600798 -1.684597 6.309344 8.806151 13.289716 -54.949215 2.341832 -1.409717 24.194097 -1.033650 -5.055304 3.401208 -2.110999 0.000000 -34.480500 11.322901 -4.892584 -5.518060 1.964295 -6.069986 -4.006509 -6.724176 -6.206473 0.865494 9.019292 -10.340831 -8.372746 -3.562443 -0.263440 -0.199128 0.000000 0.000000 0.000000 -6.211262 -0.689159 2.484670 -57.742391 -21.828428 13.015413 -2.804307 -43.822658 -0.022985 6.763784 -1.409411 -0.098757 -0.146393 0.251847 0.000000 0.000000 0.000000 0.000000 0.000000 0.000000 0.000000 14.916033 -10.936907 2.239631 55.475574 -8.196468 -25.932147 4.115637 7.253674 0.006790 -1.831260 3.685358 -0.064517 0.139260 -0.072999 -0.000000 0.000000 0.000000 0.000000 0.000000 0.000000 0.000000 
-18.459126 16.362543 -2.292723 -63.949893 86.208069 -42.369043 -13.038426 3.867685 0.131900 1.085298 7.718534 0.318872 0.533719 1.078738 24.372776 1.569206 8.260863 19.301358 3.042600 -0.000000 -77.430200 6.542119 -1.771579 6.258641 9.302429 13.333508 -54.345052 2.360718 -1.466871 24.882028 -1.036620 -4.907556 2.631560 -1.978599 -0.000000 -32.987500 11.476973 -4.837350 -5.564604 1.986542 -6.035123 -4.026044 -6.721168 -6.172560 0.842157 9.015947 -10.090594 -8.321299 -3.591563 -0.266346 -0.184577 0.000000 0.000000 0.000000 -6.232136 -0.670974 2.470169 -58.452141 -21.078315 12.958571 -2.822276 -42.515718 -0.023398 7.059937 -1.365841 -0.099738 -0.144045 0.242016 0.000000 0.000000 0.000000 0.000000 0.000000 0.000000 0.000000 14.984302 -10.701689 2.213117 55.696845 -7.533507 -25.573374 4.111117 7.223253 0.006631 -1.966288 3.703085 -0.069313 0.138729 -0.073083 -0.000000 0.000000 0.000000 0.000000 0.000000 0.000000 0.000000 
-18.259848 16.400020 -2.249705 -64.990531 86.106004 -43.431958 -13.130368 3.762408 0.151038 1.326068 7.946899 -1.084571 0.666277 1.131107 27.077984 1.747376 8.918942 20.686354 3.422199 0.000000 -72.702200 6.507062 -1.844935 6.213171 9.775469 13.347184 -53.652825 2.396242 -1.502443 25.406680 -1.024615 -4.675029 1.790093 -1.820800 0.000000 -31.500100 11.578509 -4.768137 -5.601835 1.993998 -5.981805 -4.041262 -6.725794 -6.119648 0.823037 9.034022 -9.836011 -8.258210 -3.625154 -0.269708 -0.166637 0.000000 0.000000 0.000000 -6.221968 -0.653375 2.452544 -59.161815 -20.340715 12.913685 -2.836312 -41.146182 -0.023648 7.330220 -1.285484 -0.097723 -0.141075 0.231662 0.000000 0.000000 0.000000 0.000000 0.000000 0.000000 0.000000 15.096072 -10.458064 2.181896 55.965459 -6.838122 -25.155640 4.107678 7.202769 0.006515 -2.088503 3.731719 -0.073909 0.138112 -0.073060 -0.000000 0.000000 0.000000 0.000000 0.000000 0.000000 0.000000 
-18.064272 16.439197 -2.205640 -65.637260 86.001755 -44.104651 -13.191895 3.637945 0.150623 1.494199 8.222790 -2.581076 0.762597 1.178207 29.848160 1.923284 9.752377 21.618979 3.864200 -0.000000 -67.658800 6.492186 -1.906992 6.175955 10.221769 13.343199 -52.883575 2.444001 -1.516437 25.764085 -1.005840 -4.403327 0.921227 -1.656700 -0.000001 -30.107799 11.634574 -4.684856 -5.629969 1.988260 -5.910436 -4.052545 -6.738179 -6.048235 0.807372 9.071341 -9.573092 -8.183811 -3.663337 -0.273525 -0.145523 0.000000 0.000000 0.000000 -6.190924 -0.632029 2.433496 -59.861476 -19.613546 12.871243 -2.846591 -39.741143 -0.023716 7.565510 -1.170836 -0.092409 -0.137510 0.220991 0.000000 0.000000 0.000000 0.000000 0.000000 0.000000 0.000000 15.248445 -10.200595 2.147168 56.276215 -6.105101 -24.682553 4.104568 7.188243 0.006451 -2.200824 3.778889 -0.078503 0.137391 -0.073000 -0.000000 0.000000 0.000000 0.000000 0.000000 0.000000 0.000000 
-17.872427 16.480172 -2.161045 -65.902852 85.891228 -44.397944 -13.224337 3.498529 0.130390 1.587473 8.528172 -4.157699 0.827871 1.228556 32.649564 2.093776 10.771983 22.078471 4.366700 0.000001 -62.661200 6.493979 -1.959265 6.148005 10.639664 13.332072 -52.046774 2.499689 -1.509426 25.954934 -0.987436 -4.133156 0.064798 -1.501100 0.000000 -28.891500 11.653051 -4.588164 -5.648100 1.971269 -5.822124 -4.060134 -6.758026 -5.959540 0.794241 9.124740 -9.297290 -8.099162 -3.705926 -0.277762 -0.121683 0.000000 0.000000 0.000000 -6.149522 -0.600742 2.414833 -60.540837 -18.894270 12.822783 -2.853506 -38.328866 -0.023594 7.759637 -1.027583 -0.084196 -0.133415 0.210217 0.000000 0.000000 0.000000 0.000000 0.000000 0.000000 0.000000 15.436252 -9.923171 2.110344 56.623845 -5.327736 -24.158864 4.100893 7.174988 0.006447 -2.306569 3.850716 -0.083596 0.136550 -0.072984 -0.000000 0.000000 0.000000 0.000000 0.000000 0.000000 0.000000 
-17.684657 16.523025 -2.116349 -65.782790 85.771714 -44.306688 -13.228898 3.348779 0.092046 1.601818 8.839049 -5.797415 0.869476 1.288547 35.444068 2.258838 11.972492 22.081293 4.916401 -0.000000 -58.109899 6.510624 -2.001669 6.127543 11.027086 13.318518 -51.149530 2.559276 -1.482629 25.985145 -0.974330 -3.894112 -0.748027 -1.362700 -0.000001 -27.907301 11.639246 -4.479312 -5.654062 1.944445 -5.718266 -4.064282 -6.785026 -5.855115 0.781565 9.190687 -9.001754 -8.004226 -3.752882 -0.282405 -0.095261 0.000000 0.000000 0.000000 -6.106813 -0.557766 2.398462 -61.189859 -18.173708 12.758971 -2.857285 -36.940349 -0.023288 7.909036 -0.863238 -0.073579 -0.128855 0.199531 0.000000 0.000000 0.000000 0.000000 0.000000 0.000000 0.000000 15.654180 -9.617664 2.073211 57.005044 -4.502647 -23.593398 4.095573 7.159991 0.006501 -2.407863 3.950713 -0.089288 0.135564 -0.073098 -0.000000 0.000000 0.000000 0.000000 0.000000 0.000000 0.000000 
